<?xml version="1.0" encoding="utf-8"?>
<!DOCTYPE svg PUBLIC "-//W3C//DTD SVG 20010904//EN" "http://www.w3.org/TR/2001/REC-SVG-20010904/DTD/svg10.dtd">
<svg version="1.0" width="84pt" height="86.759pt" viewBox="0 0 84 86.759" preserveAspectRatio="xMidYMid meet" xmlns="http://www.w3.org/2000/svg">
  <g transform="translate(-1.5,86.968)scale(.075,.075)" fill="#FFF">
    <path id="path1" d="M 828 -1160 c -2 1 -48 34 -103 74 l -100 72 -3 67 c -2 37 0 67 4 67 4 0 47 -30 97 -66 49 -36 95 -68 101 -70 6 -2 56 28 111 69 55 40 124 90 153 111 l 52 38 0 -71 0 -70 -154 -110 c -85 -61 -156 -111 -158 -111 z M 305 -1120 c -14 0 -29 8 -35 20 -7 13 -7 34 0 67 6 26 15 65 21 86 l 10 37 42 -6 c 23 -4 43 -7 44 -8 1 -1 -7 -37 -18 -81 -11 -44 -25 -87 -30 -97 -5 -10 -21 -18 -34 -18 z M 504 -1098 c -11 -2 -27 4 -34 13 -7 8 -15 35 -17 59 -3 25 -3 60 1 78 l 6 33 49 0 49 0 -5 -55 c -3 -30 -11 -71 -17 -90 -7 -23 -18 -36 -32 -38 z M 149 -1030 c -10 0 -23 9 -29 21 -7 11 -8 34 -4 52 3 17 15 51 25 74 l 18 43 38 -17 c 21 -10 39 -18 41 -19 1 -1 -10 -30 -24 -65 -15 -35 -32 -70 -37 -77 -5 -6 -18 -12 -28 -12 z M 828 -919 c -2 0 -47 32 -100 70 -91 66 -98 73 -98 105 0 19 4 34 10 34 5 0 19 -13 31 -29 11 -15 39 -38 61 -51 32 -18 48 -21 85 -15 31 4 56 16 75 35 15 16 28 34 28 42 1 7 24 29 53 50 29 20 78 55 109 78 l 58 41 0 -70 0 -70 -154 -110 c -85 -61 -156 -111 -158 -110 z M 365 -890 c -18 0 -37 6 -43 13 -7 9 -8 26 -1 55 5 24 7 47 4 53 -4 5 -13 9 -21 9 -9 0 -23 -18 -31 -40 -12 -30 -22 -40 -39 -40 -12 0 -30 7 -38 16 -9 8 -16 21 -16 28 0 7 7 34 16 59 9 26 13 54 10 62 -3 8 -9 15 -14 15 -4 0 -16 -16 -25 -35 -9 -20 -24 -38 -34 -42 -10 -4 -24 3 -40 21 l -23 27 19 37 c 10 20 24 55 31 77 7 22 16 44 20 48 4 5 47 1 94 -8 48 -9 120 -27 159 -42 40 -14 98 -39 129 -55 32 -17 58 -36 58 -42 0 -6 -5 -52 -11 -101 -6 -49 -16 -96 -22 -103 -6 -8 -25 -12 -46 -10 -35 3 -36 5 -39 46 -3 34 -7 42 -22 42 -15 0 -23 -11 -31 -45 -11 -42 -14 -45 -44 -45 z M 54 -848 c -11 -2 -23 0 -27 4 -4 4 -7 18 -7 30 0 13 7 39 16 57 l 16 34 34 -21 c 18 -11 33 -24 34 -27 0 -3 -10 -21 -23 -40 -12 -19 -32 -35 -43 -37 z M 788 -740 c -18 0 -42 13 -66 35 -22 19 -50 55 -63 79 l -23 45 22 46 22 46 -25 59 c -14 33 -25 69 -25 80 0 12 4 18 10 15 6 -4 39 -64 75 -133 35 -70 78 -147 94 -172 17 -25 31 -52 31 -60 0 -9 -5 -21 -12 -28 -7 -7 -25 -12 -40 -12 z M 897 -630 c -3 0 -12 18 -21 40 -9 22 -16 47 -16 54 0 8 48 49 108 92 59 43 122 89 140 102 l 32 24 0 -70 0 -71 -119 -85 c -66 -47 -121 -86 -124 -86 z M 585 -618 c -5 0 -44 18 -85 39 -41 21 -110 47 -153 59 -42 12 -103 25 -134 30 -31 5 -57 11 -59 13 -2 2 9 40 24 84 15 44 39 94 54 112 22 26 39 34 85 41 32 6 78 10 102 10 30 0 48 6 58 18 7 9 21 27 29 39 15 21 14 25 -23 68 l -38 46 -75 -5 c -42 -3 -84 -8 -93 -12 -9 -3 -17 -2 -17 4 0 5 8 19 18 31 11 14 38 25 77 32 33 6 82 8 109 4 27 -3 65 -15 86 -25 20 -10 42 -26 49 -34 10 -12 11 -39 5 -118 -5 -57 -8 -121 -6 -143 2 -22 9 -62 18 -90 13 -44 12 -57 -3 -127 -10 -43 -22 -77 -28 -76 z M 338 -204 c -92 -3 -97 -2 -100 18 -2 12 -1 33 1 49 2 19 11 29 30 34 14 4 56 8 93 8 60 0 71 -3 94 -26 l 26 -26 -24 -27 c -22 -25 -29 -27 -120 -30 z " />
  </g>
</svg>