<?xml version="1.0" encoding="utf-8"?>
<!DOCTYPE svg PUBLIC "-//W3C//DTD SVG 20010904//EN" "http://www.w3.org/TR/2001/REC-SVG-20010904/DTD/svg10.dtd">
<svg version="1.0" width="382.87pt" height="317.068pt" viewBox="0 0 382.87 317.068" preserveAspectRatio="xMidYMid meet" xmlns="http://www.w3.org/2000/svg">
  <g transform="translate(0,317.625)scale(.075,.075)" fill="#FFF">
    <path id="path1" d="M 121 -4160 l -7 -75 -18 34 c -10 19 -27 59 -37 88 -10 30 -23 92 -30 138 -8 61 -8 109 1 181 6 55 18 126 26 159 8 33 27 96 41 140 14 44 47 125 73 180 26 55 68 131 95 170 26 38 56 88 66 110 10 22 19 54 19 72 0 17 -7 39 -16 47 -8 9 -27 16 -40 16 -14 0 -41 -7 -60 -15 -20 -8 -58 -33 -86 -55 -28 -22 -54 -40 -59 -40 -4 0 -1 24 7 52 9 29 38 100 66 156 36 74 68 123 112 170 33 36 151 143 261 237 110 95 213 187 230 205 l 30 32 -35 -21 c -19 -11 -65 -31 -102 -46 -38 -14 -125 -39 -196 -55 -70 -17 -162 -42 -204 -56 -42 -14 -103 -42 -135 -63 -33 -21 -73 -58 -91 -81 -31 -42 -32 -43 -32 -17 0 15 8 49 19 76 10 27 40 82 66 121 26 39 81 105 124 148 42 42 108 101 146 130 39 29 124 79 190 111 66 32 129 68 140 80 15 17 17 26 9 39 -6 9 -29 23 -50 30 -21 7 -65 12 -97 10 -35 -2 -56 1 -54 7 2 5 24 24 49 41 26 17 80 46 122 63 41 17 135 47 208 66 73 20 176 55 229 79 53 23 133 67 178 96 44 30 79 55 77 57 -2 2 -23 -1 -47 -6 -24 -6 -128 -11 -230 -11 -110 0 -200 -5 -220 -11 -19 -6 -51 -25 -73 -42 -37 -29 -38 -29 -31 -6 4 13 21 53 38 89 21 45 52 87 101 136 39 38 93 82 120 97 27 15 87 43 135 62 47 19 127 41 176 50 79 14 111 15 267 4 115 -8 191 -9 215 -3 24 5 39 16 41 27 3 13 -11 24 -50 41 -29 13 -63 34 -74 47 -12 13 -27 35 -34 48 -7 13 -16 37 -20 52 -5 16 -6 29 -3 29 4 0 15 -7 25 -17 14 -12 49 -18 146 -24 84 -5 146 -14 182 -27 31 -11 75 -29 98 -41 22 -11 46 -21 51 -21 5 0 17 34 27 77 12 55 15 98 11 155 -4 43 -15 98 -25 121 -11 23 -29 51 -41 61 -21 19 -21 19 -42 0 -12 -10 -28 -33 -35 -51 -8 -18 -14 -62 -14 -97 0 -36 -4 -68 -10 -71 -5 -3 -10 2 -10 12 0 10 -17 42 -37 72 -32 46 -38 63 -37 101 1 25 16 86 33 135 17 49 31 102 31 117 0 15 -6 29 -12 29 -7 1 -20 0 -28 -1 -8 -1 -27 -13 -42 -28 -16 -14 -28 -31 -28 -38 0 -7 -5 -16 -12 -20 -8 -5 -9 4 -4 35 3 24 16 61 27 82 11 22 36 58 56 80 20 22 55 50 77 61 23 12 71 24 108 27 45 5 68 3 68 -4 0 -5 -7 -29 -15 -53 -8 -24 -13 -53 -9 -66 3 -13 26 -43 51 -67 l 45 -44 -7 55 c -6 48 -4 59 14 80 l 21 25 20 -23 c 11 -13 24 -40 30 -60 5 -20 10 -52 10 -70 0 -18 -7 -49 -15 -69 -8 -19 -15 -52 -15 -72 0 -20 11 -60 25 -89 13 -28 26 -52 27 -52 2 0 4 18 5 40 1 21 16 70 32 109 19 42 31 86 31 112 0 30 3 40 10 33 6 -6 22 -42 35 -80 14 -38 25 -87 25 -109 0 -22 -12 -67 -26 -100 -14 -33 -27 -83 -30 -110 -5 -45 0 -60 41 -145 l 47 -95 -7 107 c -4 66 -2 122 5 147 6 22 32 67 59 99 26 31 53 67 59 79 7 12 12 51 12 87 0 54 4 70 24 93 20 23 26 25 39 14 9 -7 23 -35 31 -62 9 -27 19 -67 22 -90 4 -22 10 -37 14 -32 4 4 12 35 19 67 6 33 11 87 11 121 0 34 -7 83 -15 108 -8 26 -18 54 -21 62 -4 11 0 15 16 15 12 0 45 -20 72 -45 28 -25 53 -43 56 -40 3 3 0 11 -6 17 -7 7 -12 34 -12 61 l 0 50 41 -7 c 23 -4 54 -13 69 -21 15 -8 48 -34 73 -58 25 -25 55 -63 66 -85 11 -22 23 -59 27 -81 4 -23 3 -41 -2 -41 -5 0 -16 15 -25 33 -9 17 -30 40 -48 51 -30 17 -34 17 -48 3 -15 -14 -14 -23 11 -99 15 -45 28 -101 29 -123 1 -28 -9 -64 -31 -112 -18 -39 -36 -91 -41 -115 l -8 -43 -11 28 c -7 16 -12 44 -12 63 0 19 -5 49 -10 68 -6 18 -18 41 -29 50 -10 9 -25 14 -35 10 -9 -4 -26 -25 -38 -48 -14 -27 -23 -67 -26 -118 -2 -43 1 -98 8 -127 6 -28 16 -51 21 -51 5 0 38 10 72 21 42 15 101 24 184 29 89 5 128 11 147 24 l 27 17 -7 -28 c -4 -15 -18 -49 -31 -74 -14 -26 -35 -52 -46 -58 -12 -6 -40 -17 -62 -24 -22 -8 -40 -20 -40 -28 0 -7 12 -18 28 -23 20 -7 59 -4 148 13 100 20 138 23 218 17 54 -4 145 -17 203 -31 59 -13 138 -37 176 -53 39 -16 102 -50 141 -76 38 -26 97 -76 129 -111 33 -36 73 -94 91 -129 17 -35 31 -69 31 -77 0 -7 -11 -2 -28 14 -15 14 -45 34 -67 44 -34 14 -72 17 -245 18 -113 1 -214 5 -225 9 l -20 8 20 -17 c 11 -9 46 -30 77 -46 32 -16 91 -42 132 -59 42 -16 150 -52 241 -80 91 -27 183 -59 205 -70 22 -11 72 -41 110 -66 39 -25 70 -49 70 -52 0 -4 -36 -7 -79 -7 -64 0 -83 -4 -100 -19 -12 -11 -21 -25 -21 -32 0 -7 13 -26 29 -42 17 -16 66 -44 110 -62 45 -18 121 -58 169 -90 49 -32 123 -91 165 -130 42 -39 97 -102 122 -140 25 -38 54 -93 64 -122 10 -29 21 -70 24 -91 3 -20 3 -37 -1 -37 -4 0 -15 13 -25 29 -10 16 -35 44 -56 60 -22 17 -63 42 -93 56 -29 13 -95 35 -146 49 -50 15 -150 44 -220 66 -71 22 -159 55 -195 73 -37 19 -67 32 -67 29 0 -2 28 -35 61 -73 34 -39 107 -102 163 -142 55 -40 139 -104 185 -142 46 -38 106 -96 135 -129 32 -38 72 -106 109 -183 31 -67 60 -136 64 -155 l 6 -33 -47 42 c -26 23 -68 49 -93 57 -26 9 -59 16 -74 16 -19 0 -34 -8 -45 -25 -14 -21 -15 -32 -5 -70 6 -25 43 -95 83 -157 39 -61 92 -159 116 -217 24 -58 55 -144 69 -191 13 -47 31 -128 39 -180 11 -66 14 -125 10 -192 -3 -55 -15 -126 -26 -160 -11 -35 -31 -83 -44 -107 l -23 -43 -1 63 c 0 39 -10 92 -26 137 -13 40 -43 104 -66 143 -22 38 -67 104 -99 146 -33 43 -103 125 -157 183 -54 58 -489 539 -968 1069 l -871 965 -32 -135 c -18 -74 -33 -142 -33 -151 0 -11 10 -20 26 -24 18 -5 41 0 70 14 24 12 44 17 44 12 0 -6 -4 -10 -8 -10 -4 0 -43 -47 -86 -105 -43 -58 -92 -115 -109 -127 -19 -14 -51 -23 -85 -26 -40 -4 -67 -13 -98 -35 -29 -20 -59 -31 -93 -35 -46 -4 -53 -2 -81 26 -16 17 -30 35 -30 41 0 6 12 8 29 5 23 -5 36 1 68 30 24 21 44 51 52 76 11 37 8 60 -25 221 -21 99 -40 178 -44 177 -4 -2 -459 -496 -1011 -1098 -552 -603 -1023 -1118 -1047 -1145 -24 -27 -63 -79 -87 -115 -24 -36 -53 -90 -65 -120 -12 -30 -25 -89 -29 -130 z " />
  </g>
</svg>