<?xml version="1.0" encoding="utf-8"?>
<!DOCTYPE svg PUBLIC "-//W3C//DTD SVG 20010904//EN" "http://www.w3.org/TR/2001/REC-SVG-20010904/DTD/svg10.dtd">
<svg version="1.0" width="96.156pt" height="95.974pt" viewBox="0 0 96.156 95.974" preserveAspectRatio="xMidYMid meet" xmlns="http://www.w3.org/2000/svg">
  <g transform="translate(.122,95.896)scale(.075,.075)" fill="#FFF">
    <path id="path1" d="M 195 -1271 c -30 8 -75 29 -75 35 0 2 45 29 100 61 55 31 100 59 100 64 0 4 -45 81 -101 171 -114 186 -114 180 -10 200 31 5 89 19 130 31 l 74 20 84 -83 c 46 -45 83 -87 83 -91 0 -5 -13 -24 -29 -43 -36 -40 -51 -89 -51 -164 0 -30 -5 -72 -10 -92 -13 -44 -66 -93 -117 -107 -42 -12 -132 -13 -178 -2 z m 217 259 c 24 16 26 21 15 35 -11 16 -14 16 -45 -3 -28 -17 -32 -23 -22 -35 16 -19 19 -19 52 3 z m -52 90 c 23 18 21 42 -3 42 -21 -1 -60 -37 -53 -49 10 -16 31 -14 56 7 z m -47 94 c 17 13 17 15 3 27 -12 10 -20 10 -45 -5 -24 -14 -28 -21 -20 -36 10 -19 21 -16 62 14 z M 836 -1091 c -157 157 -169 172 -177 216 -8 43 -21 60 -129 171 -107 110 -120 127 -120 158 0 29 9 43 48 80 41 40 52 46 92 46 45 0 47 -2 159 -114 113 -114 113 -114 168 -118 l 55 -5 166 -166 167 -167 -1 -65 c -2 -123 -83 -205 -203 -205 l -56 0 -169 169 z m 225 -103 c 11 13 -9 37 -149 177 -154 154 -163 161 -179 144 -17 -16 -10 -25 142 -177 88 -88 163 -160 166 -160 4 0 12 7 20 16 z m 159 144 c 9 17 -9 39 -149 182 -153 156 -160 162 -177 145 -18 -16 -16 -19 36 -75 133 -139 265 -272 272 -272 4 0 12 9 18 20 z M 10 -1037 c 0 56 21 115 61 173 l 31 46 22 -34 c 12 -18 32 -50 45 -70 l 22 -37 -91 -61 -90 -61 0 44 z M 773 -498 l -93 91 182 186 c 100 102 195 194 212 203 115 66 252 -64 192 -181 -12 -23 -386 -391 -397 -391 -2 0 -46 41 -96 92 z m 393 303 c 21 32 12 68 -21 83 -40 18 -85 -9 -85 -52 0 -54 76 -76 106 -31 z M 283 -361 c -86 90 -108 108 -144 116 -40 10 -45 15 -91 99 l -50 89 29 29 29 29 75 -42 c 95 -54 109 -67 109 -98 0 -20 27 -53 116 -140 l 115 -114 -37 -38 c -21 -22 -41 -39 -44 -38 -3 0 -51 49 -107 108 z " />
  </g>
</svg>